#!OML:ASF I:\Actors\actors\Patient Classification 1\Patient 1\Session 1\Subject1.ASF
:FULLY-SPECIFIED
:DEGREES
866
root 0.771798 17.613 8.41225 3.81497 -0.24703 -9.31503
lowerback -2.80556 0.288429 9.27342
upperback -6.56995 0.464631 0.810699
thorax -5.26543 -0.210001 -4.34675
lowerneck -11.0226 -4.41347 -2.68079
upperneck 40.0261 -8.87552 6.42473
head 16.8074 -3.29164 1.81035
rclavicle -1.87852e-014 4.96962e-014
rhumerus -24.6861 73.4306 -118.007
rradius 125.885
rwrist -7.73883
rhand -8.6462 -58.0398
rfingers 7.12502
rthumb 17.287 -807.291
lclavicle -1.87852e-014 4.96962e-014
lhumerus -127.326 -100.186 218.629
lradius 103.974
lwrist 40.7533
lhand 33.6769 -6.43336
lfingers 7.12502
lthumb 56.9788 10.1703
rfemur -5.17373 17.9239 27.7145
rtibia 13.6553
rfoot -16.0576 -17.4827
rtoes -0.35772
lfemur 2.78273 -26.5203 -8.30569
ltibia 1.28155
lfoot -11.4173 34.073
ltoes -6.76409
867
root 0.76997 17.6132 8.41032 3.82305 -0.232158 -9.30016
lowerback -2.80128 0.30601 9.27097
upperback -6.57883 0.489303 0.81385
thorax -5.27379 -0.198123 -4.34247
lowerneck -11.0228 -4.41065 -2.58767
upperneck 40.007 -8.79969 6.20054
head 16.7667 -3.2758 1.70598
rclavicle -1.39149e-015 5.56597e-015
rhumerus -24.5375 73.4459 -117.838
rradius 125.885
rwrist -7.71634
rhand -8.63762 -58.1931
rfingers 7.12502
rthumb 17.2952 -807.444
lclavicle -1.39149e-015 5.56597e-015
lhumerus -127.179 -100.2 218.494
lradius 103.961
lwrist 40.7291
lhand 33.6853 -6.51336
lfingers 7.12502
lthumb 56.9862 10.0842
rfemur -5.17722 17.8817 27.6979
rtibia 13.6177
rfoot -15.9945 -17.4773
rtoes -0.515864
lfemur 2.7442 -26.4739 -8.29674
ltibia 1.29955
lfoot -11.3495 34.0202
ltoes -6.89181
868
root 0.768225 17.6136 8.40676 3.80623 -0.217236 -9.26656
lowerback -2.77007 0.349037 9.24649
upperback -6.62379 0.551311 0.772813
thorax -5.33042 -0.171135 -4.37318
lowerneck -10.8771 -4.41255 -2.43275
upperneck 39.9981 -8.78321 6.05751
head 16.7031 -3.26816 1.62076
rclavicle -7.05686e-015 1.19271e-014
rhumerus -24.5294 73.3657 -117.811
rradius 125.866
rwrist -7.5665
rhand -8.66969 -58.2619
rfingers 7.12502
rthumb 17.2644 -807.515
lclavicle -7.05686e-015 1.19271e-014
lhumerus -126.8 -100.104 218.128
lradius 103.961
lwrist 40.7118
lhand 33.7195 -6.54942
lfingers 7.12502
lthumb 57.0163 10.023
rfemur -5.16751 17.8567 27.6698
rtibia 13.6305
rfoot -16.0042 -17.4893
rtoes -0.183122
lfemur 2.71393 -26.3821 -8.31283
ltibia 1.36031
lfoot -11.3786 33.9137
ltoes -6.76508
869
root 0.766402 17.6138 8.40276 3.77705 -0.196673 -9.19993
lowerback -2.75137 0.429547 9.22418
upperback -6.65554 0.658323 0.662733
thorax -5.3586 -0.122273 -4.4787
lowerneck -10.7433 -4.4241 -2.27719
upperneck 40.0278 -8.86155 6.0995
head 16.6865 -3.27335 1.6026
rclavicle -6.55989e-015 -3.33958e-014
rhumerus -24.3288 73.1713 -117.609
rradius 125.86
rwrist -7.47334
rhand -8.745 -58.2484
rfingers 7.12502
rthumb 17.1919 -807.508
lclavicle -6.55989e-015 -3.33958e-014
lhumerus -125.707 -99.9617 217.061
lradius 103.974
lwrist 40.6807
lhand 33.6504 -6.69342
lfingers 7.12502
lthumb 56.9555 9.92958
rfemur -5.15083 17.8757 27.6051
rtibia 13.6452
rfoot -16.0439 -17.512
rtoes 0.127526
lfemur 2.68615 -26.2766 -8.37107
ltibia 1.42918
lfoot -11.3424 33.7886
ltoes -6.80451
870
root 0.764947 17.6136 8.3998 3.77064 -0.182589 -9.17565
lowerback -3.22086 0.486769 8.88017
upperback -6.3747 0.673046 0.863929
thorax -4.78423 -0.0585224 -4.07161
lowerneck -10.8007 -4.41998 -2.38354
upperneck 39.8259 -8.80333 6.11811
head 16.5929 -3.2628 1.63493
rclavicle -1.90833e-014 3.37934e-014
rhumerus -22.7868 73.4222 -115.758
rradius 125.883
rwrist -7.53153
rhand -8.67233 -58.1541
rfingers 7.12502
rthumb 17.2618 -807.407
lclavicle -1.90833e-014 3.37934e-014
lhumerus -124.624 -100.398 216.387
lradius 103.941
lwrist 40.611
lhand 33.5073 -6.9394
lfingers 7.12502
lthumb 56.8295 9.78776
rfemur -5.15068 17.8981 27.5857
rtibia 13.6309
rfoot -16.0092 -17.5645
rtoes -0.219806
lfemur 2.65501 -26.259 -8.37929
ltibia 1.45219
lfoot -11.3434 33.7521
ltoes -6.78918
871
root 0.763901 17.6132 8.39753 3.77554 -0.179646 -9.23146
lowerback -4.06648 0.577486 8.8333
upperback -5.83264 0.672731 0.955581
thorax -3.72765 0.00611418 -3.943
lowerneck -10.952 -4.44374 -2.48911
upperneck 39.3771 -8.83462 6.31477
head 16.411 -3.26915 1.72236
rclavicle -1.32192e-014 4.53229e-014
rhumerus -19.6696 73.6976 -112.557
rradius 125.861
rwrist -7.65566
rhand -8.50314 -58.0207
rfingers 7.12502
rthumb 17.4247 -807.26
lclavicle -1.32192e-014 4.53229e-014
lhumerus -122.266 -101.125 214.273
lradius 103.963
lwrist 40.529
lhand 33.4943 -7.12286
lfingers 7.12502
lthumb 56.818 9.61374
rfemur -5.15947 17.924 27.6597
rtibia 13.6288
rfoot -15.9771 -17.6116
rtoes -0.651722
lfemur 2.62457 -26.2423 -8.28559
ltibia 1.46003
lfoot -11.4096 33.7322
ltoes -6.72787
872
root 0.763052 17.6133 8.39491 3.76902 -0.166677 -9.30847
lowerback -4.3092 0.565598 8.88234
upperback -5.61851 0.61857 1.03062
thorax -3.37196 1.06284e-005 -3.89083
lowerneck -11.1756 -4.42749 -2.627
upperneck 39.282 -8.80797 6.4349
head 16.4308 -3.25782 1.79728
rclavicle -4.17448e-015 2.38542e-015
rhumerus -18.4502 73.9326 -111.324
rradius 125.845
rwrist -7.71655
rhand -8.34803 -58.0157
rfingers 7.12502
rthumb 17.5739 -807.241
lclavicle -4.17448e-015 2.38542e-015
lhumerus -122.207 -101.51 214.245
lradius 103.987
lwrist 40.4201
lhand 33.6629 -7.2086
lfingers 7.12502
lthumb 56.9665 9.40529
rfemur -5.1548 17.9538 27.7583
rtibia 13.6217
rfoot -15.9934 -17.6282
rtoes -0.556197
lfemur 2.59744 -26.1659 -8.16254
ltibia 1.47132
lfoot -11.4108 33.6576
ltoes -6.83987
873
root 0.762412 17.6132 8.39255 3.76713 -0.13543 -9.37047
lowerback -4.282 0.496947 8.95812
upperback -5.5446 0.525977 1.10281
thorax -3.3225 -0.0431863 -3.85926
lowerneck -11.4482 -4.3648 -2.73117
upperneck 39.2336 -8.66507 6.41019
head 16.4651 -3.21044 1.82235
rclavicle -1.45113e-014 4.33351e-014
rhumerus -17.9959 74.2435 -110.882
rradius 125.836
rwrist -7.68171
rhand -8.21103 -58.1149
rfingers 7.12502
rthumb 17.7058 -807.329
lclavicle -1.45113e-014 4.33351e-014
lhumerus -122.9 -101.781 214.883
lradius 104.014
lwrist 40.3713
lhand 33.7609 -7.20577
lfingers 7.12502
lthumb 57.0526 9.33632
rfemur -5.14457 17.9569 27.8348
rtibia 13.5793
rfoot -15.9782 -17.6544
rtoes -0.598053
lfemur 2.55426 -26.0739 -8.05295
ltibia 1.48789
lfoot -11.354 33.5632
ltoes -7.0314
874
root 0.761698 17.6129 8.39145 3.77527 -0.115073 -9.42056
lowerback -4.32163 0.468786 8.99476
upperback -5.4819 0.480676 1.15308
thorax -3.24049 -0.0607572 -3.82775
lowerneck -11.6717 -4.3245 -2.87964
upperneck 39.231 -8.58042 6.46681
head 16.5254 -3.18325 1.88392
rclavicle 2.78299e-015 -2.78299e-015
rhumerus -17.5382 74.4759 -110.416
rradius 125.83
rwrist -7.63726
rhand -8.13516 -58.1261
rfingers 7.12502
rthumb 17.7788 -807.333
lclavicle 2.78299e-015 -2.78299e-015
lhumerus -123.128 -101.959 215.11
lradius 104.022
lwrist 40.3207
lhand 33.725 -7.23846
lfingers 7.12502
lthumb 57.0211 9.32996
rfemur -5.13561 17.969 27.8996
rtibia 13.5466
rfoot -15.968 -17.6801
rtoes -0.731575
lfemur 2.53595 -26.0731 -7.97886
ltibia 1.473
lfoot -11.1989 33.55
ltoes -7.36867
